HIERARCHY
ROOT SimulationBone
{
	OFFSET 0.000000 0.000000 0.000000
	CHANNELS 6 Xposition Yposition Zposition Zrotation Yrotation Xrotation 
	JOINT Hips
	{
		OFFSET 0.000000 0.000000 0.000000
		CHANNELS 6 Xposition Yposition Zposition Zrotation Yrotation Xrotation 
		JOINT RightUpLeg
		{
			OFFSET 0.103462 1.857827 10.548504
			CHANNELS 3 Zrotation Yrotation Xrotation
			JOINT RightLeg
			{
				OFFSET 43.500000 -0.000031 0.000000
				CHANNELS 3 Zrotation Yrotation Xrotation
				JOINT RightFoot
				{
					OFFSET 42.372192 0.000015 0.000000
					CHANNELS 3 Zrotation Yrotation Xrotation
					JOINT RightToe
					{
						OFFSET 17.300001 0.000000 -0.000009
						CHANNELS 3 Zrotation Yrotation Xrotation
						End Site
						{
							OFFSET 0.000000 0.000000 0.000000
						}
					}
				}
			}
		}
		JOINT LeftUpLeg
		{
			OFFSET 0.103456 1.857828 -10.548508
			CHANNELS 3 Zrotation Yrotation Xrotation
			JOINT LeftLeg
			{
				OFFSET 43.500046 -0.000015 0.000008
				CHANNELS 3 Zrotation Yrotation Xrotation
				JOINT LeftFoot
				{
					OFFSET 42.372261 -0.000015 0.000002
					CHANNELS 3 Zrotation Yrotation Xrotation
					JOINT LeftToe
					{
						OFFSET 17.299999 -0.000003 0.000011
						CHANNELS 3 Zrotation Yrotation Xrotation
						End Site
						{
							OFFSET 0.000000 0.000000 0.000000
						}
					}
				}
			}
		}
		JOINT Spine
		{
			OFFSET 6.901966 -2.603728 -0.000009
			CHANNELS 3 Zrotation Yrotation Xrotation
			JOINT Spine1
			{
				OFFSET 12.588099 0.000000 0.000013
				CHANNELS 3 Zrotation Yrotation Xrotation
				JOINT Spine2
				{
					OFFSET 12.343203 0.000005 -0.000004
					CHANNELS 3 Zrotation Yrotation Xrotation
					JOINT Neck
					{
						OFFSET 25.832897 -0.000004 0.000004
						CHANNELS 3 Zrotation Yrotation Xrotation
						JOINT Head
						{
							OFFSET 11.766615 0.000003 -0.000003
							CHANNELS 3 Zrotation Yrotation Xrotation
							End Site
							{
								OFFSET 0.000000 0.000000 0.000000
							}
						}
					}
					JOINT RightShoulder
					{
						OFFSET 19.745903 -1.480370 6.000102
						CHANNELS 3 Zrotation Yrotation Xrotation
						JOINT RightArm
						{
							OFFSET 11.284127 -0.000006 -0.000019
							CHANNELS 3 Zrotation Yrotation Xrotation
							JOINT RightForeArm
							{
								OFFSET 33.000042 0.000001 0.000035
								CHANNELS 3 Zrotation Yrotation Xrotation
								JOINT RightHand
								{
									OFFSET 25.200005 0.000015 0.000003
									CHANNELS 3 Zrotation Yrotation Xrotation
									End Site
									{
										OFFSET 0.000000 0.000000 0.000000
									}
								}
							}
						}
					}
					JOINT LeftShoulder
					{
						OFFSET 19.746101 -1.480375 -6.000084
						CHANNELS 3 Zrotation Yrotation Xrotation
						JOINT LeftArm
						{
							OFFSET 11.284132 -0.000016 -0.000012
							CHANNELS 3 Zrotation Yrotation Xrotation
							JOINT LeftForeArm
							{
								OFFSET 33.000092 0.000018 0.000010
								CHANNELS 3 Zrotation Yrotation Xrotation
								JOINT LeftHand
								{
									OFFSET 25.199774 0.000137 0.000425
									CHANNELS 3 Zrotation Yrotation Xrotation
									End Site
									{
										OFFSET 0.000000 0.000000 0.000000
									}
								}
							}
						}
					}
				}
			}
		}
	}
}
MOTION
Frames: 11
Frame Time: 0.033333
28.605264 0.000000 73.259999 0.000000 224.007578 0.000000 -13.215791 76.530373 -5.786017 80.416289 -9.950687 176.028011 140.120730 -0.997190 172.927904 -71.323390 -0.011808 0.734196 101.867511 -0.922881 -7.064901 21.454555 0.003105 0.000018 126.535825 7.021606 -173.392917 -109.220305 -3.618168 7.572731 84.214621 -3.400599 8.272611 21.454555 -0.003093 -0.000003 15.472812 -1.268201 -0.909297 20.958244 -2.350560 -2.033696 20.640067 -2.362917 -2.019483 -4.452999 -1.697593 6.936265 -32.782084 -3.508613 8.701942 158.664980 -77.229502 20.255110 -46.692724 41.826716 -30.597864 -93.243823 -5.093429 2.848094 -25.237342 -19.093428 41.396250 141.113279 74.171613 -38.244350 -18.515345 -53.776186 -9.336174 -40.446693 17.794658 -1.651961 -7.965499 21.407145 -27.402109 
20.123420 0.000000 78.620581 0.000000 222.131877 0.000000 -13.685936 79.153923 -5.012139 79.625938 -8.052696 177.244592 150.048710 -2.059291 175.605038 -64.424223 -0.180430 0.012771 100.416697 -0.613381 -8.729668 21.454557 0.003109 0.000018 118.585171 6.780110 -173.803685 -97.273744 -2.137682 7.880949 83.182340 -3.509129 8.943175 21.454551 -0.003092 0.000001 15.296851 -0.701332 -0.933028 20.592701 -1.225266 -1.976056 20.274730 -1.237299 -1.968637 -3.990695 -1.168658 7.603412 -32.318857 -4.548100 10.052092 157.064530 -78.208309 21.832893 -47.553461 42.717878 -32.251446 -98.964271 -2.113754 2.895901 -24.720729 -17.484075 38.735324 144.075327 75.033234 -35.175963 -13.036376 -55.096691 -18.470836 -36.396319 16.008684 -1.433111 -8.418259 18.912340 -29.263324 
11.583777 0.000000 83.749361 0.000000 220.337918 0.000000 -13.914684 81.883476 -4.219676 78.201838 -6.935193 178.205033 158.913941 -2.999607 178.254509 -56.114102 -1.612897 -1.465686 92.474389 -0.118736 -8.632072 21.454562 0.003108 0.000017 114.329683 6.787594 -175.569575 -80.313087 0.813960 9.272287 81.786461 -4.387979 9.504314 21.454541 -0.003089 0.000001 14.922244 -0.227633 -1.044496 19.834212 -0.272700 -2.112473 19.516364 -0.285582 -2.110805 -3.951746 -1.209002 7.937119 -31.791174 -5.861776 11.041334 162.652076 -78.232099 16.156218 -45.999668 44.541412 -29.103788 -101.683704 -1.527129 2.976361 -24.916880 -17.394718 38.727637 145.056402 75.515815 -34.147370 -7.375062 -56.100162 -27.582124 -33.171545 14.248722 -1.246083 -7.557803 18.438972 -27.969918 
2.991497 0.000000 88.663249 0.000000 218.635783 0.000000 -13.731436 84.356506 -3.390017 76.965428 -5.729727 179.363765 166.913854 -5.170397 178.700001 -48.548165 -2.830983 -1.656688 81.898456 -0.624097 -8.164701 21.454562 0.003100 0.000019 114.433693 6.805498 -173.961394 -59.720661 1.627807 11.075574 82.339652 -5.671069 9.816480 21.454551 -0.003093 0.000001 14.485178 0.244882 -1.164643 18.951104 0.677365 -2.273336 18.633250 0.663500 -2.277403 -3.268520 -0.639123 8.276897 -31.403352 -6.641100 11.907048 166.714604 -77.764005 12.044093 -41.647314 47.249278 -24.648329 -102.100106 -1.313207 2.979990 -24.917654 -15.580201 40.142545 146.759906 76.304319 -32.366398 -1.509264 -57.034006 -35.726165 -31.603156 11.891412 -1.060772 -7.220723 17.885166 -26.143143 
-5.648256 0.000000 93.379156 0.000000 217.033822 0.000000 -12.734129 85.872833 -2.635262 76.273728 -6.200430 -178.365626 174.243972 -6.026905 177.828579 -43.637136 -3.171594 -1.108377 74.716867 -1.930019 -9.580034 21.454568 0.003101 0.000015 117.571912 8.216598 -169.968670 -38.588738 -0.199368 9.251169 82.568333 -4.098216 11.160430 21.454553 -0.003093 0.000001 13.989280 0.416435 -1.618946 17.951590 1.079252 -3.153569 17.633962 1.060070 -3.160042 -3.124962 1.096866 8.568234 -29.322531 -7.364447 12.763665 170.673190 -76.710797 8.048489 -35.047797 48.897830 -17.684183 -100.303889 -1.586897 2.918991 -23.979824 -15.191599 40.698324 152.011775 75.999235 -27.047995 5.454400 -56.342569 -44.162675 -32.134865 11.550342 -1.049404 -9.157925 16.982104 -27.470133 
-14.330320 0.000000 97.913992 0.000000 215.538639 0.000000 -11.819236 86.136612 -2.219143 76.333410 -6.961782 -175.943042 178.716653 -5.435301 178.496448 -45.789988 -1.147117 -0.279898 72.980278 -2.632588 -9.252757 21.454557 0.003111 0.000014 121.070335 9.649400 -170.633357 -23.577364 0.524280 7.291754 82.357765 -2.045188 14.290829 21.454551 -0.003092 0.000000 13.548773 0.470203 -2.071299 17.063667 1.241079 -4.050534 16.746369 1.216482 -4.057949 -1.901882 1.968559 8.464544 -28.714809 -7.921856 13.051594 172.661691 -76.051008 6.039809 -28.086680 50.463616 -11.037073 -96.914818 -2.402977 2.824366 -22.440510 -14.649130 41.306187 155.430763 75.599587 -23.590580 13.238211 -54.996570 -51.640178 -34.968031 13.072891 -1.209515 -13.838598 15.587144 -34.290312 
-23.049532 0.000000 102.284669 0.000000 214.155145 0.000000 -11.249900 85.600838 -2.061964 77.719946 -7.751561 -173.826101 179.625260 -3.423497 -177.425338 -56.885610 0.890374 -1.524430 75.843240 -0.977667 -7.214308 21.454555 0.003113 0.000014 124.412019 10.769503 -172.947534 -20.006847 1.090662 7.391577 81.401320 -1.829382 15.102662 21.454551 -0.003088 -0.000003 13.537336 0.438344 -2.321854 17.038540 1.214223 -4.553763 16.721474 1.186599 -4.561007 -3.656027 3.602180 7.934200 -26.285343 -9.700986 13.444210 175.079318 -77.476939 3.536193 -24.070483 52.931586 -5.799053 -92.476206 -4.739152 2.788900 -22.739839 -15.376433 42.477162 163.353618 76.313369 -15.484966 16.181659 -54.046600 -53.589623 -37.933416 13.410353 -1.301547 -13.700188 17.726844 -33.564615 
-31.800730 0.000000 106.508096 0.000000 212.886687 0.000000 -10.404529 83.651627 -1.946238 80.301473 -7.322584 -173.644598 179.714927 -2.737894 -174.477374 -72.287464 1.339069 -4.159614 77.605791 0.477956 -9.180940 21.454551 0.003105 0.000017 127.072692 9.374497 -170.947245 -27.553495 -0.100819 5.342535 82.109351 -0.551040 14.454108 21.454553 -0.003092 -0.000002 13.647295 0.525831 -2.009651 17.259828 1.345893 -3.918331 16.942458 1.322091 -3.926388 -1.815885 4.355623 7.776303 -27.039131 -10.727232 13.964417 172.018724 -77.674605 6.648284 -18.488272 54.420533 0.908967 -87.109999 -8.435915 2.808346 -22.650586 -17.702399 41.283729 165.243573 75.973895 -13.572265 18.213662 -51.712435 -52.991073 -40.850555 14.309111 -1.435052 -12.133923 19.068604 -29.761521 
-40.578751 0.000000 110.601184 0.000000 211.735205 0.000000 -10.137822 81.944313 -1.804911 82.764747 -5.099654 -175.136983 177.163182 -3.128293 -175.756627 -88.627141 3.567129 -6.830993 77.371556 2.395663 -8.672256 21.454562 0.003106 0.000016 128.924410 5.753096 -172.365643 -37.417651 2.509385 6.246751 75.291217 -3.121802 4.902603 21.454553 -0.003093 0.000001 13.952820 0.732720 -1.352132 17.875864 1.665718 -2.574826 17.557964 1.650003 -2.584846 -1.756070 5.320468 7.976362 -26.842051 -11.920972 14.894085 171.119803 -77.103683 7.581107 -13.388171 55.068550 5.687952 -81.889221 -11.602081 2.799536 -21.784735 -19.944508 38.044690 165.592486 76.614211 -13.191193 12.671784 -50.807004 -46.788049 -41.978438 14.675268 -1.489490 -12.871821 21.869231 -27.462422 
-49.378432 0.000000 114.580844 0.000000 210.701415 0.000000 -9.656076 79.742592 -2.017700 85.439066 -4.114529 -177.711458 173.513074 -2.630903 -178.368560 -104.015988 5.183489 -8.596876 78.736850 3.815969 -8.009304 21.454562 0.003110 0.000018 129.624655 3.795196 -169.821917 -50.958450 3.251764 4.571402 74.183675 -5.406173 -6.957026 21.454553 -0.003097 -0.000001 14.475573 0.585595 -0.808523 18.930933 1.295666 -1.510270 18.612861 1.286385 -1.518080 -1.535275 5.652156 8.783634 -27.255286 -12.381259 16.061675 174.305499 -76.214516 4.357414 -9.848686 55.410046 9.125175 -76.116229 -14.766440 2.770227 -20.524433 -22.516605 35.340338 161.244592 76.553600 -17.622870 3.507024 -48.897703 -35.768362 -43.355695 15.125536 -1.557394 -11.111125 21.424410 -25.539566 
-58.194611 0.000000 118.463987 0.000000 209.785011 0.000000 -9.496212 77.858513 -2.169761 87.670304 -2.802742 -179.516031 166.748659 -1.840301 -179.237715 -116.995690 5.763599 -9.480870 80.995894 4.678844 -7.197924 21.454555 0.003109 0.000017 132.640443 2.035510 -166.311978 -62.448140 1.630560 3.156926 83.961808 -4.415663 -10.417361 21.454551 -0.003092 0.000000 14.889596 0.529473 -0.367125 19.764151 1.113906 -0.638354 19.446011 1.109900 -0.645084 0.973273 5.417374 9.380215 -29.656992 -13.265113 17.346438 174.583501 -74.686609 4.112790 -7.517060 54.620326 12.827751 -68.373984 -18.320852 2.691920 -19.390931 -24.697303 31.973997 155.594824 75.767247 -23.414630 -7.386667 -45.273759 -23.778496 -44.525757 16.159632 -1.659018 -11.560599 21.912307 -25.117493 
